<?xml version="1.0" encoding="iso-8859-1"?>
<svg height="800px" width="800px" version="1.1" id="Layer_1" xmlns="http://www.w3.org/2000/svg" xmlns:xlink="http://www.w3.org/1999/xlink" 
	 viewBox="0 0 512 512" xml:space="preserve">
<g>
	<path style="fill:#FF5050;" d="M414.123,0H256.001c-9.75,0-17.655,7.904-17.655,17.655v35.31l177.447-33.91
		c4.587-0.81,7.932-4.796,7.932-9.454C423.724,4.298,419.426,0,414.123,0z"/>
	<path style="fill:#FF5050;" d="M318.852,139.697l-41.578-25.986c-7.743-4.84-12.446-13.326-12.446-22.457V70.621h-52.966v20.632
		c0,9.131-4.704,17.618-12.447,22.457l-41.578,25.986c-10.324,6.452-16.596,17.769-16.596,29.943v324.705
		c0,9.75,7.905,17.655,17.655,17.655h158.897c9.75,0,17.655-7.905,17.655-17.655V169.64
		C335.448,157.464,329.177,146.148,318.852,139.697z"/>
</g>
<g>
	<path style="fill:#C84146;" d="M308.663,467.862H203.035V169.64c0-12.174,2.566-23.491,6.79-29.943l17.01-25.986
		c1.034-1.58,1.911-3.591,2.643-5.866c0.481-1.497,1.973-2.417,3.535-2.237c1.75,0.201,3.526,0.323,5.333,0.323
		c10.062,0,19.435-2.857,27.447-7.729c-0.611-2.241-0.964-4.567-0.964-6.95V70.621h-52.966v20.632
		c0,9.131-4.704,17.618-12.447,22.457l-41.578,25.986c-10.324,6.452-16.596,17.769-16.596,29.943v324.705
		c0,9.751,7.904,17.655,17.655,17.655h51.36c-3.989,0-7.222-7.905-7.222-17.655v-8.828h105.931c5.07,0,9.142-4.275,8.809-9.416
		C317.469,471.41,313.364,467.862,308.663,467.862z"/>
	<path style="fill:#C84146;" d="M398.131,85.63L247.173,35.31l-8.828,35.31l165.559,41.389c4.761,1.191,8.961-3.345,7.41-8.001
		l-2.599-7.796C407.049,91.217,403.128,87.296,398.131,85.63z"/>
</g>
<path style="fill:#707487;" d="M185.38,17.655c-53.791,0-97.171,44.012-97.103,97.803c0.047,38.423,4.039,76.233,8.263,116.241
	c4.617,43.758,9.393,89,9.393,139.06v44.138c0,4.875,3.953,8.828,8.828,8.828h17.655c4.875,0,8.828-3.953,8.828-8.828v-44.138
	c0-51.914-4.875-98.094-9.586-142.759c-4.14-39.213-8.05-76.25-8.068-112.967c-0.019-34.141,27.651-62.068,61.792-62.068h52.966
	v-35.31H185.38z"/>
<path style="fill:#FFF082;" d="M282.483,406.069h-88.276c-9.751,0-17.655-7.904-17.655-17.655V282.483
	c0-9.751,7.904-17.655,17.655-17.655h88.276c9.751,0,17.655,7.904,17.655,17.655v105.931
	C300.139,398.164,292.233,406.069,282.483,406.069z"/>
<path style="fill:#FF7873;" d="M300.139,229.241c-6.094,0-11.034-4.94-11.034-11.034v-42.449l-0.94-0.586
	c-5.181-3.207-6.776-10.008-3.569-15.19c3.207-5.181,10.017-6.767,15.19-3.569l2.017,1.25c5.888,3.699,9.37,9.992,9.37,16.871
	v43.672C311.173,224.301,306.233,229.241,300.139,229.241z M290.12,176.387h0.087H290.12z M264.819,158.603
	c-1.999,0-4.018-0.543-5.836-1.673l-6.268-3.914c-0.879-0.543-1.759-1.129-2.63-1.732c-5.017-3.457-6.275-10.336-2.81-15.345
	c3.457-5.026,10.336-6.293,15.345-2.81c0.577,0.396,1.164,0.776,1.759,1.146l6.293,3.93c5.173,3.233,6.741,10.035,3.518,15.207
	C272.094,156.767,268.5,158.603,264.819,158.603z"/>
<path style="fill:#FFDC64;" d="M273.656,291.31h-70.621v-26.483h-8.828c-9.75,0-17.655,7.904-17.655,17.655v105.931
	c0,9.75,7.905,17.655,17.655,17.655h8.828v-52.966h61.793c4.875,0,8.828-3.953,8.828-8.828c0-4.875-3.953-8.828-8.828-8.828h-61.793
	v-17.655h70.621c4.875,0,8.828-3.953,8.828-8.828v-8.828C282.483,295.262,278.531,291.31,273.656,291.31z"/>
<circle style="fill:#D5DCED;" cx="238.345" cy="52.966" r="35.31"/>
<circle style="fill:#AFB9D2;" cx="238.345" cy="52.966" r="17.655"/>
<path style="fill:#464655;" d="M105.932,370.759v44.138c0,4.875,3.953,8.828,8.828,8.828h17.655c4.875,0,8.828-3.953,8.828-8.828
	v-44.138c0-5.965-0.079-11.836-0.201-17.655h-35.11V370.759z"/>
<g>
	<path style="fill:#AFB9D2;" d="M140.11,326.621h-35.356c0.446,8.693,0.783,17.513,0.979,26.483h35.317
		C140.862,344.117,140.539,335.299,140.11,326.621z"/>
	<path style="fill:#AFB9D2;" d="M154.483,61.314c7.891-4.598,16.882-7.489,26.483-8.173V17.76
		c-9.226,0.415-18.111,2.124-26.483,4.952V61.314z"/>
</g>
</svg>